# xmcd
#
# Track frame offsets: 
#        150
#        22572
#        42290
#        71485
#        113837
#        134917
#        165155
#        182410
#        205910
#        229230
#
# Disc length: 3407 seconds
#
# Revision: 0
# Processed by: cddbd v1.5.2PL0 Copyright (c) Steve Scherf et al.
# Submitted via: ExactAudioCopy v0.99pb5
#
DISCID=7c0d4d0a
DTITLE=Eric Clapton  - Behind The Sun Japan Tour 1985 - Disc 09
DYEAR=1900
DGENRE=
TTITLE0=Tulsa Time
TTITLE1=Motherless Children
TTITLE2=I Shot The Sheriff
TTITLE3=Same Old Blues
TTITLE4=Tangled In Love
TTITLE5=White Room
TTITLE6=Hold Me Now
TTITLE7=Wonderful Tonight
TTITLE8=She's Waiting
TTITLE9=Lay Down Sally
EXTD=
EXTT0=
EXTT1=
EXTT2=
EXTT3=
EXTT4=
EXTT5=
EXTT6=
EXTT7=
EXTT8=
EXTT9=
PLAYORDER=
